<svg width="1983" height="1753" viewBox="0 0 1983 1753" fill="none" xmlns="http://www.w3.org/2000/svg">
<path d="M410.134 1747.5L240.152 1748.47C240.152 1748.47 -22.2685 1500 1.52552 916.749C25.3195 333.498 431.747 21.3412 719.771 2.06522C1071.14 -21.4498 1135.14 162.528 1405.83 214.445C1642.89 259.912 1794.71 356.569 1901.64 593.481C2003.87 819.988 2042.68 1310.86 1817.99 1747.5H410.134Z" fill="#A7EFFF" fill-opacity="0.33"/>
<path d="M696.396 1749.17C703.259 1744.83 815.812 1572.48 889.932 1653.97C889.932 1653.97 1001.11 1355.18 1153.47 1369.3C1305.83 1383.43 1176.8 1605.08 1176.8 1605.08C1176.8 1605.08 1307.2 1562.7 1277 1674.62C1277 1674.62 1442.4 1655.07 1430.05 1749.59L696.396 1749.17Z" fill="#2BFF00" fill-opacity="0.55"/>
<path d="M1361.11 1501.07C1383.41 1483.47 1393.9 1459.58 1384.53 1447.7C1375.15 1435.82 1349.47 1440.45 1327.17 1458.05C1304.87 1475.64 1294.38 1499.54 1303.76 1511.42C1313.13 1523.3 1338.81 1518.66 1361.11 1501.07Z" fill="#2BFF00" fill-opacity="0.55"/>
<path d="M1351.32 1540.31C1339.29 1551.8 1335.84 1565.24 1343.62 1570.34C1351.39 1575.45 1367.44 1570.27 1379.47 1558.78C1391.5 1547.29 1394.95 1533.85 1387.18 1528.75C1379.4 1523.65 1363.35 1528.82 1351.32 1540.31Z" fill="#2BFF00" fill-opacity="0.55"/>
<path d="M1095.96 1414.13C1095.56 1414.13 1095.16 1414.02 1094.85 1413.78C1094.21 1413.3 1094.2 1412.5 1094.81 1412C1095.92 1411.08 1122.39 1389.66 1150.77 1389.66C1150.78 1389.66 1150.78 1389.66 1150.78 1389.66C1151.67 1389.66 1152.38 1390.22 1152.38 1390.92C1152.38 1391.62 1151.67 1392.18 1150.79 1392.18C1150.79 1392.18 1150.78 1392.18 1150.77 1392.18C1123.75 1392.18 1097.36 1413.53 1097.1 1413.75C1096.79 1414.01 1096.37 1414.13 1095.96 1414.13Z" fill="black"/>
<path d="M1117.22 1412.41C1116.82 1412.41 1116.42 1412.29 1116.11 1412.05C1115.48 1411.57 1115.46 1410.77 1116.08 1410.27C1116.59 1409.86 1128.85 1400.1 1154.52 1396.99C1155.4 1396.89 1156.2 1397.36 1156.33 1398.05C1156.47 1398.74 1155.87 1399.38 1155 1399.49C1130.37 1402.46 1118.48 1411.94 1118.36 1412.03C1118.05 1412.29 1117.63 1412.41 1117.22 1412.41Z" fill="black"/>
<path d="M572.887 1749.36C569.11 1746.97 507.173 1652.13 466.385 1696.97C466.385 1696.97 405.203 1532.55 321.361 1540.32C237.519 1548.09 271.287 1664.89 271.287 1664.89C261.037 1658.39 233.037 1658.64 243.787 1691.56C204.454 1672.89 176.454 1720.89 215.787 1749.59L572.887 1749.36Z" fill="#7CFF6A"/>
<path d="M1901.64 1746.3H79.8774V1752.89H1901.64V1746.3Z" fill="#4C222E"/>
<path d="M1030.87 352.163C1030.86 351.733 1030.84 351.306 1030.81 350.881C1029.97 336.468 1018.69 324.958 1004.58 324.104C1004.16 324.073 1003.74 324.052 1003.32 324.039C1003.18 324.037 1003.05 324.018 1002.91 324.018H379.597C379.457 324.018 379.322 324.037 379.182 324.039C378.76 324.052 378.341 324.073 377.924 324.104C363.813 324.958 352.532 336.469 351.695 350.881C351.665 351.306 351.644 351.734 351.631 352.163C351.629 352.306 351.61 352.444 351.61 352.588V1676.3C351.61 1690.07 362.54 1701.22 376.008 1701.22H1006.49C1019.96 1701.22 1030.89 1690.07 1030.89 1676.3V352.588C1030.89 352.445 1030.87 352.306 1030.87 352.163ZM352.052 422.52V382.535H392.781C393.96 383.077 395.255 383.382 396.614 383.382C397.987 383.382 399.295 383.077 400.46 382.535H421.776C422.942 383.077 424.249 383.382 425.622 383.382C426.995 383.382 428.303 383.077 429.468 382.535H450.784C451.95 383.077 453.258 383.382 454.63 383.382C456.002 383.382 457.311 383.077 458.476 382.535H907.917V383.382H981.617V382.535H1030.65V422.52H352.052Z" fill="#D0F6FC"/>
<path d="M989.945 295.288H392.56C354.124 295.288 322.952 327.112 322.952 366.384V1675.2C322.952 1714.48 354.123 1746.3 392.56 1746.3H989.945C1028.39 1746.3 1059.55 1714.48 1059.55 1675.2V366.384C1059.55 327.113 1028.39 295.288 989.945 295.288ZM1030.89 1662.6C1030.89 1683.93 1013.95 1701.22 993.079 1701.22H389.439C368.55 1701.22 351.611 1683.93 351.611 1662.6V367.111C351.611 343.302 370.506 324.017 393.803 324.017H988.701C1012 324.017 1030.89 343.302 1030.89 367.111L1030.89 1662.6Z" fill="#20111D"/>
<path d="M1030.9 422.394V1676.31C1030.9 1690.07 1019.96 1701.23 1006.49 1701.23H376.014C362.539 1701.23 351.617 1690.07 351.617 1676.31V422.394H352.053V422.521H1030.65V422.394H1030.9Z" fill="#B8FFA7"/>
<path d="M527.294 422.521H503.631L503.731 641.818H351.617V665.986H503.744L503.819 828.169H351.617V852.338H503.831L503.943 1101.44H351.617V1125.61H503.955L504.067 1359.88H351.617V1384.04H504.08L504.229 1701.22H527.892L527.78 1461.42H838.011V1560.86H709.734V1701.22H733.397V1585.02H1030.9V1560.86H861.674V1461.42H1030.43V1437.25H703.495L703.395 1325.75H957.571L957.671 1003.49H1030.9V979.324H957.671L957.721 852.338H1030.9V828.17H957.721L957.771 665.987H1030.9V641.819H957.783V545.565H1030.9V521.397H527.344L527.294 422.521ZM527.406 665.986H783.213V753.972C745.626 759.327 715.811 789.78 710.568 828.169H527.481L527.406 665.986ZM795.045 777.289C829.032 777.289 856.693 805.541 856.693 840.254C856.693 874.968 829.033 903.219 795.045 903.219C761.058 903.219 733.397 874.967 733.397 840.254C733.397 805.54 761.058 777.289 795.045 777.289ZM527.494 852.338H710.569C715.812 890.728 745.627 921.18 783.214 926.535V979.324H527.556L527.494 852.338ZM527.768 1437.25L527.569 1003.49H679.434L679.833 1437.25H527.768ZM933.908 1301.58H703.37L703.096 1003.49H934.007L933.908 1301.58ZM934.008 979.325H806.876V926.536C844.463 921.181 874.278 890.729 879.521 852.339H934.057L934.008 979.325ZM934.057 828.17H879.521C874.278 789.78 844.463 759.328 806.876 753.973V665.987H934.107L934.057 828.17ZM766.811 545.564H934.12V641.818H766.811V545.564ZM743.149 641.818H527.394L527.344 545.564H743.149V641.818Z" fill="white"/>
<path d="M852.956 1578.67H740.869V1568.49H842.993V1456.55H686.072V1309H940.135V998.621H789.44V922.146C763.862 920.556 743.013 906.615 728.922 881.587C720.816 867.189 717.061 852.923 715.583 845.978H510.469V675.527H520.432V835.802H723.988L724.624 840.135C724.651 840.314 727.478 858.728 737.703 876.766C751.001 900.227 770.085 912.123 794.423 912.123H799.405V988.445H950.1V1319.17H696.035V1446.38H852.957V1578.67H852.956Z" fill="#80C4A4"/>
<path d="M762.041 684.431H549.076V726.408H762.041V684.431Z" fill="#D0F6FC"/>
<path d="M824.312 1053.32H778.232V1095.3H824.312V1053.32Z" fill="#D0F6FC"/>
<path d="M1013.61 1031.69H967.534V1073.67H1013.61V1031.69Z" fill="#D0F6FC"/>
<path d="M857.938 1170.35H811.858V1212.32H857.938V1170.35Z" fill="#D0F6FC"/>
<path d="M925.19 1492.17H879.11V1534.14H925.19V1492.17Z" fill="#D0F6FC"/>
<path d="M1018.6 1492.17H972.516V1534.14H1018.6V1492.17Z" fill="#D0F6FC"/>
<path d="M1016.1 1607.92H758.305V1649.9H1016.1V1607.92Z" fill="#D0F6FC"/>
<path d="M407.1 942.652H361.02V984.629H407.1V942.652Z" fill="#D0F6FC"/>
<path d="M603.874 894.315H557.794V936.292H603.874V894.315Z" fill="#D0F6FC"/>
<path d="M407.1 1011.34H361.02V1053.32H407.1V1011.34Z" fill="#D0F6FC"/>
<path d="M702.262 894.315H656.182V936.292H702.262V894.315Z" fill="#D0F6FC"/>
<path d="M916.472 922.3H870.392V964.277H916.472V922.3Z" fill="#D0F6FC"/>
<path d="M603.874 756.936H557.794V798.913H603.874V756.936Z" fill="#D0F6FC"/>
<path d="M691.053 756.936H644.973V798.913H691.053V756.936Z" fill="#D0F6FC"/>
<path d="M916.472 689.519H870.392V731.496H916.472V689.519Z" fill="#D0F6FC"/>
<path d="M725.924 572.493H679.844V614.47H725.924V572.493Z" fill="#D0F6FC"/>
<path d="M489.297 684.431H370.983V726.408H489.297V684.431Z" fill="#D0F6FC"/>
<path d="M489.297 770.928H370.983V812.905H489.297V770.928Z" fill="#D0F6FC"/>
<path d="M479.334 873.962H361.02V915.939H479.334V873.962Z" fill="#D0F6FC"/>
<path d="M481.824 436.386H435.744V614.47H481.824V436.386Z" fill="#D0F6FC"/>
<path d="M407.1 436.386H361.02V614.47H407.1V436.386Z" fill="#D0F6FC"/>
<path d="M880.355 572.493H834.275V614.47H880.355V572.493Z" fill="#D0F6FC"/>
<path d="M1031.05 456.738H550.322V498.715H1031.05V456.738Z" fill="#D0F6FC"/>
<path d="M658.672 572.493H612.592V614.47H658.672V572.493Z" fill="#D0F6FC"/>
<path d="M591.42 572.493H545.34V614.47H591.42V572.493Z" fill="#D0F6FC"/>
<path d="M818.085 1339.52H718.452V1381.5H818.085V1339.52Z" fill="#D0F6FC"/>
<path d="M658.672 1031.69H612.592V1177.98H658.672V1031.69Z" fill="#D0F6FC"/>
<path d="M488.051 1414.57H441.971V1560.86H488.051V1414.57Z" fill="#D0F6FC"/>
<path d="M591.42 1478.18H545.34V1624.46H591.42V1478.18Z" fill="#D0F6FC"/>
<path d="M691.053 1545.59H644.973V1691.88H691.053V1545.59Z" fill="#D0F6FC"/>
<path d="M820.576 1545.59V1498.53H644.973V1545.59H820.576Z" fill="#D0F6FC"/>
<path d="M493.033 1586.3H446.953V1649.9H493.033V1586.3Z" fill="#D0F6FC"/>
<path d="M658.672 1230.13H612.592V1272.11H658.672V1230.13Z" fill="#D0F6FC"/>
<path d="M877.864 1245.39H745.851V1287.37H877.864V1245.39Z" fill="#D0F6FC"/>
<path d="M923.944 1026.61H877.864V1287.37H923.944V1026.61Z" fill="#D0F6FC"/>
<path d="M967.534 1339.52H835.521V1381.5H967.534V1339.52Z" fill="#D0F6FC"/>
<path d="M1013.61 1120.74H967.534V1381.5H1013.61V1120.74Z" fill="#D0F6FC"/>
<path d="M478.088 1148.72H432.008V1190.7H478.088V1148.72Z" fill="#D0F6FC"/>
<path d="M407.1 1148.72H361.02V1190.7H407.1V1148.72Z" fill="#D0F6FC"/>
<path d="M407.1 1297.55H361.02V1339.52H407.1V1297.55Z" fill="#D0F6FC"/>
<path d="M658.672 1310.27H612.592V1352.24H658.672V1310.27Z" fill="#D0F6FC"/>
<path d="M484.765 600.598L514.644 661.173L546.008 601.386C555.293 579.456 540.388 554.436 517.015 553.444C516.669 553.429 516.322 553.42 515.974 553.415C515.626 553.41 515.278 553.411 514.932 553.417C491.542 553.808 476.024 578.436 484.765 600.598ZM515.739 572.403C524.295 572.513 531.144 579.687 531.036 588.426C530.928 597.165 523.905 604.16 515.348 604.05C506.792 603.94 499.943 596.766 500.051 588.027C500.159 579.288 507.183 572.293 515.739 572.403Z" fill="#ED2B47"/>
<path d="M693.994 1525.36L723.873 1585.94L755.237 1526.15C764.522 1504.22 749.617 1479.2 726.244 1478.21C725.898 1478.19 725.551 1478.18 725.203 1478.18C724.855 1478.17 724.507 1478.17 724.161 1478.18C700.771 1478.57 685.253 1503.2 693.994 1525.36ZM724.968 1497.17C733.524 1497.28 740.373 1504.45 740.265 1513.19C740.157 1521.93 733.133 1528.92 724.577 1528.81C716.021 1528.7 709.172 1521.53 709.28 1512.79C709.388 1504.05 716.412 1497.06 724.968 1497.17Z" fill="#ED2B47"/>
<path d="M1002.26 324.018H380.001C364.324 324.018 351.611 336.994 351.611 353.012V422.52H352.051H1030.4H1030.65V353.012C1030.65 336.993 1017.93 324.018 1002.26 324.018Z" fill="#8C76D4"/>
<g opacity="0.7">
<path d="M407.152 373.804C407.152 377.693 404.837 381.04 401.504 382.534C400.314 383.076 398.978 383.381 397.575 383.381C396.186 383.381 394.864 383.076 393.66 382.534C390.327 381.052 387.999 377.693 387.999 373.804C387.999 368.513 392.298 364.227 397.575 364.227C402.866 364.228 407.152 368.513 407.152 373.804Z" fill="white"/>
<path d="M436.781 373.804C436.781 377.693 434.466 381.04 431.133 382.534C429.943 383.076 428.607 383.381 427.205 383.381C425.803 383.381 424.467 383.076 423.276 382.534C419.943 381.04 417.628 377.693 417.628 373.804C417.628 368.513 421.914 364.227 427.205 364.227C432.496 364.227 436.781 368.513 436.781 373.804Z" fill="white"/>
<path d="M466.409 373.804C466.409 377.693 464.094 381.04 460.761 382.534C459.571 383.076 458.235 383.381 456.833 383.381C455.431 383.381 454.095 383.076 452.905 382.534C449.572 381.04 447.257 377.693 447.257 373.804C447.257 368.513 451.543 364.227 456.833 364.227C462.124 364.228 466.409 368.513 466.409 373.804Z" fill="white"/>
<path d="M919.807 356.57V363.408H915.931V375.14H919.807V383.381H995.082V356.57H919.807ZM922.387 358.765H992.504V381.198H922.387V358.765Z" fill="white"/>
<path d="M988.24 362.258H980.802V377.587H988.24V362.258Z" fill="white"/>
<path d="M975.766 362.258H968.328V377.587H975.766V362.258Z" fill="white"/>
<path d="M962.95 362.258H955.512V377.587H962.95V362.258Z" fill="white"/>
</g>
<path d="M995.933 815.544L970.608 855.338L968.944 857.952L943.619 897.746L1375.76 1216.98C1387.91 1225.96 1405.13 1222.76 1413.24 1210.01L1477.69 1108.73C1485.8 1095.99 1481.41 1079.03 1468.13 1071.83L995.933 815.544Z" fill="#7051E3"/>
<path d="M1010.22 814.198L953.415 903.464C949.876 909.026 934.505 915.61 928.944 912.071L884.069 885.458L959.119 767.528L1006.56 797.721C1012.12 801.259 1013.76 808.636 1010.22 814.198Z" fill="black"/>
<path d="M996.224 840.522L955.371 904.716C948.16 916.047 933.073 919.399 921.742 912.188L882.82 887.418L885.316 883.497L924.238 908.267C933.408 914.102 945.615 911.39 951.45 902.22L992.303 838.026L996.224 840.522Z" fill="#21111D"/>
<path opacity="0.5" d="M758.047 937.787C895.708 907.169 982.463 770.659 951.82 632.884C921.177 495.109 784.739 408.241 647.077 438.859C509.416 469.477 422.661 605.987 453.304 743.762C483.948 881.537 620.385 968.405 758.047 937.787Z" fill="#88DFED"/>
<path opacity="0.57" d="M651.4 560.384C700.432 540.267 732.392 504.975 722.784 481.558C713.177 458.141 665.64 455.467 616.608 475.584C567.576 495.701 535.616 530.993 545.224 554.41C554.831 577.826 602.368 580.501 651.4 560.384Z" fill="#F3FFFE"/>
<path d="M954.722 901.681L951.954 905.413L1380.22 1223.04L1382.99 1219.31L954.722 901.681Z" fill="#21111D"/>
<path d="M565.445 903.881C446.412 828.129 411.327 670.226 487.078 551.193C562.83 432.16 720.734 397.074 839.766 472.827C958.799 548.578 993.885 706.482 918.133 825.515C842.382 944.548 684.478 979.634 565.445 903.881ZM952.409 847.328C1040.21 709.365 999.543 526.35 861.58 438.552C723.618 350.753 540.603 391.418 452.804 529.381C365.005 667.344 405.671 850.359 543.633 938.157C681.595 1025.96 864.61 985.29 952.409 847.328Z" fill="black"/>
<path d="M954.37 848.576C866.024 987.398 681.208 1028.46 542.386 940.118C403.562 851.771 362.497 666.955 450.843 528.133C492.26 463.052 556.303 417.054 631.177 398.608L632.288 403.119C558.583 421.278 495.536 466.562 454.765 530.629C367.795 667.289 408.222 849.226 544.882 936.197C681.543 1023.17 863.479 982.741 950.449 846.081C990.817 782.649 1005.28 707.062 991.167 633.247L995.731 632.374C1010.06 707.357 995.376 784.14 954.37 848.576Z" fill="#21111D"/>
</svg>
