<svg width="2268" height="2000" viewBox="0 0 2268 2000" fill="none" xmlns="http://www.w3.org/2000/svg">
<path d="M555.314 1863.08L385.332 1864.05C385.332 1864.05 122.912 1615.58 146.706 1032.33C170.5 449.078 576.927 136.921 864.951 117.645C1216.32 94.1301 1280.32 278.108 1551.01 330.025C1788.07 375.492 1939.89 472.149 2046.82 709.061C2149.05 935.568 2187.86 1426.44 1963.17 1863.08H555.314Z" fill="#FFEFE0"/>
<path d="M841.576 1864.75C848.439 1860.4 960.992 1688.06 1035.11 1769.55C1035.11 1769.55 1146.29 1470.76 1298.65 1484.88C1451.01 1499.01 1321.98 1720.66 1321.98 1720.66C1321.98 1720.66 1452.38 1678.28 1422.18 1790.19C1422.18 1790.19 1587.58 1770.64 1575.23 1865.17L841.576 1864.75Z" fill="#52EA00"/>
<path d="M1506.29 1616.65C1528.6 1599.05 1539.08 1575.16 1529.71 1563.28C1520.33 1551.4 1494.65 1556.03 1472.35 1573.63C1450.05 1591.22 1439.57 1615.12 1448.94 1627C1458.31 1638.88 1483.99 1634.24 1506.29 1616.65Z" fill="#52EA00"/>
<path d="M1496.5 1655.89C1484.47 1667.38 1481.02 1680.82 1488.8 1685.92C1496.57 1691.02 1512.62 1685.85 1524.65 1674.36C1536.68 1662.87 1540.13 1649.43 1532.36 1644.33C1524.58 1639.23 1508.53 1644.4 1496.5 1655.89Z" fill="#52EA00"/>
<path d="M1241.14 1529.71C1240.74 1529.71 1240.34 1529.6 1240.03 1529.36C1239.39 1528.88 1239.38 1528.08 1239.99 1527.58C1241.1 1526.66 1267.57 1505.24 1295.95 1505.24C1295.96 1505.24 1295.96 1505.24 1295.96 1505.24C1296.85 1505.24 1297.56 1505.8 1297.56 1506.5C1297.56 1507.2 1296.85 1507.76 1295.97 1507.76C1295.97 1507.76 1295.96 1507.76 1295.95 1507.76C1268.93 1507.76 1242.54 1529.11 1242.28 1529.33C1241.97 1529.58 1241.55 1529.71 1241.14 1529.71Z" fill="black"/>
<path d="M1262.4 1527.99C1262 1527.99 1261.6 1527.87 1261.29 1527.63C1260.66 1527.15 1260.64 1526.35 1261.26 1525.85C1261.77 1525.43 1274.03 1515.67 1299.7 1512.57C1300.58 1512.47 1301.38 1512.94 1301.51 1513.63C1301.65 1514.32 1301.05 1514.96 1300.18 1515.07C1275.56 1518.04 1263.66 1527.51 1263.54 1527.61C1263.23 1527.86 1262.81 1527.99 1262.4 1527.99Z" fill="black"/>
<path d="M718.068 1864.94C714.291 1862.55 652.354 1767.71 611.566 1812.55C611.566 1812.55 550.384 1648.13 466.542 1655.9C382.7 1663.67 416.468 1780.47 416.468 1780.47C406.218 1773.97 378.218 1774.22 388.968 1807.14C349.635 1788.47 321.635 1836.47 360.968 1865.17L718.068 1864.94Z" fill="#52EA00"/>
<path d="M2046.82 1861.88H225.058V1868.47H2046.82V1861.88Z" fill="#4C222E"/>
<path d="M1176.05 467.743C1176.04 467.313 1176.02 466.886 1175.99 466.461C1175.15 452.048 1163.87 440.538 1149.76 439.684C1149.34 439.653 1148.92 439.632 1148.5 439.619C1148.36 439.617 1148.23 439.598 1148.09 439.598H524.777C524.637 439.598 524.502 439.617 524.362 439.619C523.94 439.632 523.521 439.653 523.104 439.684C508.993 440.538 497.712 452.049 496.875 466.461C496.845 466.886 496.824 467.314 496.811 467.743C496.809 467.886 496.79 468.024 496.79 468.168V1791.88C496.79 1805.65 507.72 1816.8 521.188 1816.8H1151.67C1165.14 1816.8 1176.07 1805.65 1176.07 1791.88V468.168C1176.07 468.025 1176.05 467.886 1176.05 467.743ZM497.232 538.1V498.115H537.961C539.14 498.657 540.435 498.962 541.794 498.962C543.167 498.962 544.475 498.657 545.64 498.115H566.956C568.122 498.657 569.429 498.962 570.802 498.962C572.175 498.962 573.483 498.657 574.648 498.115H595.964C597.13 498.657 598.438 498.962 599.81 498.962C601.182 498.962 602.491 498.657 603.656 498.115H1053.1V498.962H1126.8V498.115H1175.83V538.1H497.232Z" fill="#D0F6FC"/>
<path d="M1135.12 410.868H537.74C499.304 410.868 468.132 442.692 468.132 481.964V1790.78C468.132 1830.06 499.303 1861.88 537.74 1861.88H1135.12C1173.57 1861.88 1204.73 1830.06 1204.73 1790.78V481.964C1204.73 442.693 1173.57 410.868 1135.12 410.868ZM1176.07 1778.18C1176.07 1799.51 1159.13 1816.8 1138.26 1816.8H534.619C513.73 1816.8 496.791 1799.51 496.791 1778.18V482.691C496.791 458.882 515.686 439.597 538.983 439.597H1133.88C1157.18 439.597 1176.07 458.882 1176.07 482.691L1176.07 1778.18Z" fill="#20111D"/>
<path d="M1176.08 537.974V1791.89C1176.08 1805.65 1165.14 1816.81 1151.67 1816.81H521.194C507.719 1816.81 496.797 1805.65 496.797 1791.89V537.974H497.233V538.101H1175.83V537.974H1176.08Z" fill="#B8FFA7"/>
<path d="M672.474 538.101H648.811L648.911 757.398H496.797V781.566H648.924L648.999 943.749H496.797V967.918H649.011L649.123 1217.02H496.797V1241.19H649.135L649.247 1475.46H496.797V1499.62H649.26L649.409 1816.8H673.072L672.96 1577H983.191V1676.44H854.914V1816.8H878.577V1700.6H1176.08V1676.44H1006.85V1577H1175.61V1552.83H848.675L848.575 1441.33H1102.75L1102.85 1119.07H1176.08V1094.9H1102.85L1102.9 967.918H1176.08V943.75H1102.9L1102.95 781.567H1176.08V757.399H1102.96V661.145H1176.08V636.977H672.524L672.474 538.101ZM672.586 781.566H928.393V869.552C890.806 874.907 860.991 905.36 855.748 943.749H672.661L672.586 781.566ZM940.225 892.869C974.212 892.869 1001.87 921.121 1001.87 955.834C1001.87 990.548 974.213 1018.8 940.225 1018.8C906.238 1018.8 878.577 990.547 878.577 955.834C878.577 921.12 906.238 892.869 940.225 892.869ZM672.674 967.918H855.749C860.992 1006.31 890.807 1036.76 928.394 1042.12V1094.9H672.736L672.674 967.918ZM672.948 1552.83L672.749 1119.07H824.614L825.013 1552.83H672.948ZM1079.09 1417.16H848.55L848.276 1119.07H1079.19L1079.09 1417.16ZM1079.19 1094.91H952.056V1042.12C989.643 1036.76 1019.46 1006.31 1024.7 967.919H1079.24L1079.19 1094.91ZM1079.24 943.75H1024.7C1019.46 905.36 989.643 874.908 952.056 869.553V781.567H1079.29L1079.24 943.75ZM911.991 661.144H1079.3V757.398H911.991V661.144ZM888.329 757.398H672.574L672.524 661.144H888.329V757.398Z" fill="white"/>
<path d="M998.136 1694.24H886.049V1684.07H988.173V1572.13H831.252V1424.57H1085.31V1114.2H934.62V1037.73C909.042 1036.14 888.193 1022.19 874.102 997.167C865.996 982.769 862.241 968.503 860.763 961.558H655.649V791.107H665.612V951.382H869.168L869.804 955.715C869.831 955.894 872.658 974.308 882.883 992.346C896.181 1015.81 915.265 1027.7 939.603 1027.7H944.585V1104.02H1095.28V1434.75H841.215V1561.95H998.137V1694.24H998.136Z" fill="#80C4A4"/>
<path d="M907.221 800.011H694.256V841.988H907.221V800.011Z" fill="#D0F6FC"/>
<path d="M969.492 1168.9H923.412V1210.88H969.492V1168.9Z" fill="#D0F6FC"/>
<path d="M1158.79 1147.27H1112.71V1189.25H1158.79V1147.27Z" fill="#D0F6FC"/>
<path d="M1003.12 1285.93H957.038V1327.9H1003.12V1285.93Z" fill="#D0F6FC"/>
<path d="M1070.37 1607.75H1024.29V1649.72H1070.37V1607.75Z" fill="#D0F6FC"/>
<path d="M1163.78 1607.75H1117.7V1649.72H1163.78V1607.75Z" fill="#D0F6FC"/>
<path d="M1161.28 1723.5H903.485V1765.48H1161.28V1723.5Z" fill="#D0F6FC"/>
<path d="M552.28 1058.23H506.2V1100.21H552.28V1058.23Z" fill="#D0F6FC"/>
<path d="M749.054 1009.9H702.974V1051.87H749.054V1009.9Z" fill="#D0F6FC"/>
<path d="M552.28 1126.92H506.2V1168.9H552.28V1126.92Z" fill="#D0F6FC"/>
<path d="M847.442 1009.9H801.362V1051.87H847.442V1009.9Z" fill="#D0F6FC"/>
<path d="M1061.65 1037.88H1015.57V1079.86H1061.65V1037.88Z" fill="#D0F6FC"/>
<path d="M749.054 872.516H702.974V914.493H749.054V872.516Z" fill="#D0F6FC"/>
<path d="M836.233 872.516H790.153V914.493H836.233V872.516Z" fill="#D0F6FC"/>
<path d="M1061.65 805.099H1015.57V847.076H1061.65V805.099Z" fill="#D0F6FC"/>
<path d="M871.104 688.073H825.024V730.05H871.104V688.073Z" fill="#D0F6FC"/>
<path d="M634.477 800.011H516.163V841.988H634.477V800.011Z" fill="#D0F6FC"/>
<path d="M634.477 886.508H516.163V928.485H634.477V886.508Z" fill="#D0F6FC"/>
<path d="M624.514 989.542H506.2V1031.52H624.514V989.542Z" fill="#D0F6FC"/>
<path d="M627.004 551.966H580.924V730.05H627.004V551.966Z" fill="#D0F6FC"/>
<path d="M552.28 551.966H506.2V730.05H552.28V551.966Z" fill="#D0F6FC"/>
<path d="M1025.53 688.073H979.455V730.05H1025.53V688.073Z" fill="#D0F6FC"/>
<path d="M1176.23 572.318H695.502V614.295H1176.23V572.318Z" fill="#D0F6FC"/>
<path d="M803.852 688.073H757.772V730.05H803.852V688.073Z" fill="#D0F6FC"/>
<path d="M736.6 688.073H690.52V730.05H736.6V688.073Z" fill="#D0F6FC"/>
<path d="M963.265 1455.1H863.632V1497.08H963.265V1455.1Z" fill="#D0F6FC"/>
<path d="M803.852 1147.27H757.772V1293.56H803.852V1147.27Z" fill="#D0F6FC"/>
<path d="M633.231 1530.15H587.151V1676.44H633.231V1530.15Z" fill="#D0F6FC"/>
<path d="M736.6 1593.75H690.52V1740.04H736.6V1593.75Z" fill="#D0F6FC"/>
<path d="M836.233 1661.17H790.153V1807.45H836.233V1661.17Z" fill="#D0F6FC"/>
<path d="M965.756 1661.17V1614.11H790.153V1661.17H965.756Z" fill="#D0F6FC"/>
<path d="M638.213 1701.88H592.133V1765.48H638.213V1701.88Z" fill="#D0F6FC"/>
<path d="M803.852 1345.71H757.772V1387.69H803.852V1345.71Z" fill="#D0F6FC"/>
<path d="M1023.04 1360.97H891.031V1402.95H1023.04V1360.97Z" fill="#D0F6FC"/>
<path d="M1069.12 1142.19H1023.04V1402.95H1069.12V1142.19Z" fill="#D0F6FC"/>
<path d="M1112.71 1455.1H980.701V1497.08H1112.71V1455.1Z" fill="#D0F6FC"/>
<path d="M1158.79 1236.32H1112.71V1497.08H1158.79V1236.32Z" fill="#D0F6FC"/>
<path d="M623.268 1264.3H577.188V1306.28H623.268V1264.3Z" fill="#D0F6FC"/>
<path d="M552.28 1264.3H506.2V1306.28H552.28V1264.3Z" fill="#D0F6FC"/>
<path d="M552.28 1413.13H506.2V1455.1H552.28V1413.13Z" fill="#D0F6FC"/>
<path d="M803.852 1425.85H757.772V1467.82H803.852V1425.85Z" fill="#D0F6FC"/>
<path d="M629.945 716.178L659.824 776.753L691.188 716.966C700.473 695.036 685.568 670.016 662.195 669.024C661.849 669.009 661.502 669 661.154 668.995C660.806 668.99 660.458 668.991 660.112 668.997C636.722 669.388 621.204 694.016 629.945 716.178ZM660.919 687.983C669.475 688.093 676.324 695.267 676.216 704.006C676.108 712.745 669.085 719.74 660.528 719.63C651.972 719.52 645.123 712.346 645.231 703.607C645.339 694.868 652.363 687.873 660.919 687.983Z" fill="#ED2B47"/>
<path d="M839.174 1640.94L869.053 1701.52L900.417 1641.73C909.702 1619.8 894.797 1594.78 871.424 1593.79C871.078 1593.77 870.731 1593.76 870.383 1593.76C870.035 1593.75 869.687 1593.75 869.341 1593.76C845.951 1594.15 830.433 1618.78 839.174 1640.94ZM870.148 1612.75C878.704 1612.86 885.553 1620.03 885.445 1628.77C885.337 1637.51 878.313 1644.5 869.757 1644.39C861.201 1644.28 854.352 1637.11 854.46 1628.37C854.568 1619.63 861.592 1612.64 870.148 1612.75Z" fill="#ED2B47"/>
<path d="M1147.44 439.598H525.181C509.504 439.598 496.791 452.574 496.791 468.592V538.1H497.231H1175.58H1175.83V468.592C1175.83 452.573 1163.11 439.598 1147.44 439.598Z" fill="#8C76D4"/>
<g opacity="0.7">
<path d="M552.332 489.384C552.332 493.273 550.017 496.62 546.684 498.114C545.494 498.656 544.158 498.961 542.755 498.961C541.366 498.961 540.044 498.656 538.84 498.114C535.507 496.632 533.179 493.273 533.179 489.384C533.179 484.093 537.478 479.807 542.755 479.807C548.046 479.808 552.332 484.093 552.332 489.384Z" fill="white"/>
<path d="M581.961 489.384C581.961 493.273 579.646 496.62 576.313 498.114C575.123 498.656 573.787 498.961 572.385 498.961C570.983 498.961 569.647 498.656 568.456 498.114C565.123 496.62 562.808 493.273 562.808 489.384C562.808 484.093 567.094 479.807 572.385 479.807C577.676 479.807 581.961 484.093 581.961 489.384Z" fill="white"/>
<path d="M611.589 489.384C611.589 493.273 609.274 496.62 605.941 498.114C604.751 498.656 603.415 498.961 602.013 498.961C600.611 498.961 599.275 498.656 598.085 498.114C594.752 496.62 592.437 493.273 592.437 489.384C592.437 484.093 596.723 479.807 602.013 479.807C607.304 479.808 611.589 484.093 611.589 489.384Z" fill="white"/>
<path d="M1064.99 472.15V478.988H1061.11V490.72H1064.99V498.961H1140.26V472.15H1064.99ZM1067.57 474.345H1137.68V496.778H1067.57V474.345Z" fill="white"/>
<path d="M1133.42 477.838H1125.98V493.167H1133.42V477.838Z" fill="white"/>
<path d="M1120.95 477.838H1113.51V493.167H1120.95V477.838Z" fill="white"/>
<path d="M1108.13 477.838H1100.69V493.167H1108.13V477.838Z" fill="white"/>
</g>
<path d="M1141.11 931.124L1115.79 970.918L1114.12 973.532L1088.8 1013.33L1520.94 1332.56C1533.09 1341.54 1550.31 1338.34 1558.42 1325.59L1622.87 1224.31C1630.98 1211.57 1626.59 1194.61 1613.31 1187.41L1141.11 931.124Z" fill="#7051E3"/>
<path d="M1155.4 929.778L1098.6 1019.04C1095.06 1024.61 1079.69 1031.19 1074.12 1027.65L1029.25 1001.04L1104.3 883.108L1151.74 913.301C1157.3 916.839 1158.94 924.216 1155.4 929.778Z" fill="black"/>
<path d="M1141.4 956.102L1100.55 1020.3C1093.34 1031.63 1078.25 1034.98 1066.92 1027.77L1028 1003L1030.5 999.077L1069.42 1023.85C1078.59 1029.68 1090.8 1026.97 1096.63 1017.8L1137.48 953.606L1141.4 956.102Z" fill="#21111D"/>
<path opacity="0.5" d="M903.227 1053.37C1040.89 1022.75 1127.64 886.239 1097 748.464C1066.36 610.689 929.919 523.821 792.258 554.439C654.597 585.057 567.841 721.566 598.485 859.342C629.128 997.117 765.566 1083.98 903.227 1053.37Z" fill="#88DFED"/>
<path opacity="0.57" d="M796.581 675.964C845.613 655.846 877.573 620.555 867.965 597.138C858.357 573.721 810.82 571.046 761.788 591.164C712.756 611.281 680.796 646.573 690.404 669.989C700.012 693.406 747.549 696.081 796.581 675.964Z" fill="#F3FFFE"/>
<path d="M1099.9 1017.26L1097.13 1020.99L1525.4 1338.62L1528.17 1334.89L1099.9 1017.26Z" fill="#21111D"/>
<path d="M710.625 1019.46C591.592 943.709 556.507 785.806 632.258 666.773C708.01 547.74 865.914 512.654 984.946 588.407C1103.98 664.158 1139.07 822.062 1063.31 941.095C987.562 1060.13 829.658 1095.21 710.625 1019.46ZM1097.59 962.908C1185.39 824.945 1144.72 641.93 1006.76 554.132C868.798 466.333 685.783 506.998 597.984 644.961C510.185 782.924 550.851 965.939 688.813 1053.74C826.775 1141.54 1009.79 1100.87 1097.59 962.908Z" fill="black"/>
<path d="M1099.55 964.156C1011.2 1102.98 826.388 1144.04 687.566 1055.7C548.742 967.351 507.677 782.535 596.023 643.713C637.44 578.632 701.483 532.634 776.357 514.188L777.468 518.699C703.763 536.858 640.716 582.142 599.945 646.209C512.975 782.869 553.402 964.806 690.062 1051.78C826.723 1138.75 1008.66 1098.32 1095.63 961.661C1136 898.229 1150.46 822.642 1136.35 748.827L1140.91 747.954C1155.25 822.937 1140.56 899.72 1099.55 964.156Z" fill="#21111D"/>
</svg>
